<svg xmlns="http://www.w3.org/2000/svg" width="248" height="248" viewBox="0 0 248 248"><rect width="100%" height="100%" fill="#DDDDDD"/><path fill="#999999" d="M59.08 132.13h6.12q.66 0 1.05.38.38.37.38.98v2.44H50.26v-1.35q0-.42.18-.87.17-.45.55-.82l7.24-7.26q.91-.92 1.63-1.76.72-.84 1.2-1.67.47-.82.73-1.67t.26-1.79q0-.86-.25-1.51t-.7-1.1q-.46-.45-1.09-.67-.64-.22-1.43-.22-.73 0-1.34.21-.62.2-1.1.57-.48.37-.81.87-.33.49-.49 1.09-.29.76-.73 1-.45.25-1.29.12l-2.14-.38q.24-1.72.95-3.01.71-1.3 1.78-2.16 1.06-.87 2.44-1.31 1.38-.43 2.96-.43 1.65 0 3.02.48 1.37.49 2.34 1.38.98.89 1.52 2.15.55 1.25.55 2.79 0 1.32-.39 2.44-.39 1.12-1.04 2.14-.65 1.03-1.53 1.98-.87.96-1.83 1.95l-5.38 5.49q.78-.23 1.55-.35.76-.13 1.46-.13Zm13.56-5.19h7.26v-7.81q0-1.1.15-2.44l-7.41 10.25Zm10.81 0h3v2.36q0 .33-.22.57-.21.24-.61.24h-2.17v5.82H79.9v-5.82H69.83q-.41 0-.72-.26-.32-.26-.4-.64l-.43-2.06 11.31-15.1h3.86v14.89Zm13.41 6.07q1.01 0 1.77-.29t1.28-.8q.51-.51.78-1.22.26-.71.26-1.54 0-1.96-1.09-2.97-1.09-1-3-1t-3 1q-1.09 1.01-1.09 2.97 0 .83.26 1.54.27.71.79 1.22t1.28.8q.75.29 1.76.29Zm0-18.13q-.91 0-1.57.28t-1.09.75q-.44.47-.65 1.08-.2.61-.2 1.28 0 .71.17 1.38.17.67.59 1.19.41.52 1.08.83.68.32 1.67.32.99 0 1.67-.32.67-.31 1.09-.83.41-.52.58-1.19.18-.67.18-1.38 0-.67-.22-1.28-.21-.61-.64-1.08-.43-.47-1.09-.75-.66-.28-1.57-.28Zm4.03 8.61q2.17.71 3.21 2.17t1.04 3.57q0 1.58-.6 2.87t-1.69 2.2q-1.09.9-2.61 1.4-1.53.49-3.38.49-1.85 0-3.37-.49-1.53-.5-2.62-1.4-1.09-.91-1.69-2.2-.6-1.29-.6-2.87 0-2.11 1.04-3.57t3.21-2.17q-1.73-.73-2.59-2.06-.87-1.34-.87-3.22 0-1.35.55-2.53.56-1.17 1.55-2.03.99-.87 2.36-1.36 1.38-.48 3.03-.48t3.03.48q1.38.49 2.37 1.36.99.86 1.54 2.03.55 1.18.55 2.53 0 1.88-.86 3.22-.87 1.33-2.6 2.06Zm30.92 6.98-2.16 2.13-5.6-5.6-5.64 5.63-2.16-2.13 5.64-5.66-5.38-5.38 2.15-2.14 5.38 5.38 5.34-5.35 2.18 2.15-5.36 5.36 5.61 5.61Zm19.86 1.66h6.13q.66 0 1.04.38.39.37.39.98v2.44h-16.37v-1.35q0-.42.18-.87.17-.45.55-.82l7.24-7.26q.91-.92 1.63-1.76.72-.84 1.19-1.67.48-.82.74-1.67.25-.85.25-1.79 0-.86-.24-1.51-.25-.65-.7-1.1-.46-.45-1.09-.67-.64-.22-1.43-.22-.73 0-1.35.21-.61.2-1.09.57-.48.37-.81.87-.33.49-.5 1.09-.28.76-.72 1-.45.25-1.29.12l-2.14-.38q.24-1.72.95-3.01.71-1.3 1.78-2.16 1.06-.87 2.44-1.31 1.38-.43 2.96-.43 1.65 0 3.02.48 1.37.49 2.34 1.38.98.89 1.52 2.15.54 1.25.54 2.79 0 1.32-.38 2.44-.39 1.12-1.04 2.14-.65 1.03-1.53 1.98-.87.96-1.83 1.95l-5.38 5.49q.78-.23 1.54-.35.77-.13 1.46-.13Zm13.57-5.19h7.26v-7.81q0-1.1.15-2.44l-7.41 10.25Zm10.8 0h3.01v2.36q0 .33-.22.57-.21.24-.61.24h-2.18v5.82h-3.54v-5.82h-10.07q-.41 0-.72-.26-.32-.26-.4-.64l-.43-2.06 11.3-15.1h3.86v14.89Zm13.42 6.07q1.01 0 1.76-.29.76-.29 1.28-.8t.79-1.22q.26-.71.26-1.54 0-1.96-1.09-2.97-1.09-1-3-1-1.92 0-3 1-1.09 1.01-1.09 2.97 0 .83.26 1.54.26.71.78 1.22t1.28.8q.76.29 1.77.29Zm0-18.13q-.91 0-1.57.28t-1.1.75q-.43.47-.64 1.08-.21.61-.21 1.28 0 .71.18 1.38.17.67.58 1.19.42.52 1.09.83.68.32 1.67.32.99 0 1.67-.32.67-.31 1.08-.83.42-.52.59-1.19.17-.67.17-1.38 0-.67-.21-1.28-.22-.61-.64-1.08-.43-.47-1.09-.75-.66-.28-1.57-.28Zm4.02 8.61q2.18.71 3.22 2.17t1.04 3.57q0 1.58-.6 2.87t-1.69 2.2q-1.09.9-2.62 1.4-1.52.49-3.37.49t-3.38-.49q-1.52-.5-2.61-1.4-1.09-.91-1.69-2.2-.6-1.29-.6-2.87 0-2.11 1.04-3.57 1.03-1.46 3.21-2.17-1.73-.73-2.6-2.06-.86-1.34-.86-3.22 0-1.35.55-2.53.55-1.17 1.54-2.03.99-.87 2.37-1.36 1.38-.48 3.03-.48t3.03.48q1.37.49 2.36 1.36.99.86 1.55 2.03.55 1.18.55 2.53 0 1.88-.87 3.22-.86 1.33-2.6 2.06Z"/></svg>